<?xml version="1.0" encoding="utf-8"?>
<!-- Generator: Adobe Illustrator 23.0.1, SVG Export Plug-In . SVG Version: 6.00 Build 0)  -->
<svg version="1.1" id="Layer_1" xmlns="http://www.w3.org/2000/svg" xmlns:xlink="http://www.w3.org/1999/xlink" x="0px" y="0px"
	 viewBox="0 0 432 432" style="enable-background:new 0 0 432 432;" xml:space="preserve">
<style type="text/css">
	.st0{stroke:#B13E39;stroke-width:5.3971;stroke-miterlimit:10;}
	.st1{fill:#B13E39;stroke:#B13E39;stroke-width:4;stroke-miterlimit:10;}
</style>
<rect x="90.01" y="54.68" class="st0" width="252" height="324"/>
<path class="st1" d="M138.61,300.15H293.4V287.9c0-18.96-9.29-36.87-25.13-47.29c-6.92-4.55-15.67-8.32-26.66-10.27v-7.74
	c0,0,10.12-9.82,12.2-18.75c0,0,9.23-1.49,11.61-16.37c0,0,1.79-11.01-3.87-11.01c0,0,4.47-51.44-45.54-53.88
	s-44.65,54.47-44.65,54.47s-7.14,2.98-2.08,15.48s8.93,11.61,8.93,11.61s7.14,15.48,12.5,17.86l0.3,8.33c0,0-21.06-0.16-37.49,17.28
	c-9.75,10.36-14.9,24.22-14.9,38.45V300.15z"/>
</svg>
