<?xml version="1.0" encoding="utf-8"?>
<!-- Generator: Adobe Illustrator 23.0.1, SVG Export Plug-In . SVG Version: 6.00 Build 0)  -->
<svg version="1.1" id="Layer_1" xmlns="http://www.w3.org/2000/svg" xmlns:xlink="http://www.w3.org/1999/xlink" x="0px" y="0px"
	 viewBox="0 0 432 432" style="enable-background:new 0 0 432 432;" xml:space="preserve">
<style type="text/css">
	.st0{stroke:#B13F39;stroke-width:5.3971;stroke-miterlimit:10;}
	.st1{fill:#B13F39;stroke:#B13F39;stroke-width:4;stroke-miterlimit:10;}
</style>
<rect x="89.7" y="53.7" class="st0" width="252" height="324"/>
<g>
	<path class="st1" d="M195.9,230.2l3.9,3.9c5.8,5.8,15.3,5.5,20.8-0.6c23.8-26.8,81.1-92.6,78.3-102.4
		c-2.9-9.8-74.4,53.1-102.5,78.3C190.4,215,190.1,224.4,195.9,230.2z"/>
	<path class="st1" d="M182.5,232.7l-5.7,0.7c-4,0.5-7.8,2.3-10.7,5.2l-7.7,7.7c-5,5-8,11.7-8.1,18.8c-0.2,7.9-2.1,18.5-10.1,24.7
		c0,0,20.9,4.3,33.9-8.7l17.9-17.9c3-3,4.8-6.9,5.2-11.1l0.5-4.6C198.6,238.9,191.2,231.6,182.5,232.7z"/>
</g>
</svg>
